<svg width="170" height="90" viewBox="0 0 170 90" fill="none" xmlns="http://www.w3.org/2000/svg">
<rect x="0.5" y="0.5" width="169" height="89" rx="3.5" stroke="#AFB1B8"/>
<path d="M74 27L81.3076 33.918H101.692V53.2158L109 60.1338V27H74Z" fill="#AFB1B8"/>
<path d="M68 33.6265V65.8137H102V53.0195L81.5231 33.6344L68 33.6265ZM95.5231 61.1055H73.3801V39.4579H74.9453V59.6397H95.5231V61.1055Z" fill="#AFB1B8"/>
<path d="M77.791 71.7837L78.6089 70.0991H79.2925L78.1011 72.3452V73.6538H77.481V72.3452L76.2871 70.0991H76.9731L77.791 71.7837ZM81.3018 72.8262H79.9248L79.6367 73.6538H78.9946L80.3374 70.0991H80.8916L82.2368 73.6538H81.5923L81.3018 72.8262ZM80.0981 72.3281H81.1284L80.6133 70.8535L80.0981 72.3281ZM83.7358 72.6943C83.7358 72.5299 83.7806 72.3794 83.8701 72.2427C83.9596 72.1043 84.1362 71.9408 84.3999 71.752C84.2616 71.5778 84.1647 71.4297 84.1094 71.3076C84.0557 71.1855 84.0288 71.0675 84.0288 70.9536C84.0288 70.6753 84.1134 70.4556 84.2827 70.2944C84.452 70.1317 84.6799 70.0503 84.9663 70.0503C85.2251 70.0503 85.4367 70.1268 85.6011 70.2798C85.7671 70.4312 85.8501 70.6191 85.8501 70.8438C85.8501 70.9919 85.8127 71.1286 85.7378 71.2539C85.6629 71.3776 85.54 71.5013 85.3691 71.625L85.1274 71.8008L85.8135 72.6113C85.9128 72.416 85.9624 72.1987 85.9624 71.9595H86.4775C86.4775 72.3973 86.375 72.7562 86.1699 73.0361L86.6924 73.6538H86.0039L85.8037 73.417C85.5498 73.6074 85.2471 73.7026 84.8955 73.7026C84.5439 73.7026 84.2624 73.6099 84.0508 73.4243C83.8408 73.2371 83.7358 72.9938 83.7358 72.6943ZM84.9126 73.229C85.1128 73.229 85.3 73.1623 85.4741 73.0288L84.6978 72.1133L84.6221 72.167C84.4268 72.3151 84.3291 72.4844 84.3291 72.6748C84.3291 72.8392 84.382 72.9727 84.4878 73.0752C84.5936 73.1777 84.7352 73.229 84.9126 73.229ZM84.5854 70.939C84.5854 71.0757 84.6693 71.2474 84.8369 71.4541L85.1079 71.2686L85.1836 71.2075C85.2845 71.118 85.335 71.0033 85.335 70.8633C85.335 70.7705 85.3 70.6916 85.23 70.6265C85.16 70.5597 85.0713 70.5264 84.9639 70.5264C84.8483 70.5264 84.7563 70.5654 84.688 70.6436C84.6196 70.7217 84.5854 70.8201 84.5854 70.939ZM91.043 72.4966C91.0072 72.8758 90.8672 73.172 90.623 73.3853C90.3789 73.5968 90.0542 73.7026 89.6489 73.7026C89.3657 73.7026 89.1159 73.6359 88.8994 73.5024C88.6846 73.3674 88.5186 73.1761 88.4014 72.9287C88.2842 72.6813 88.2231 72.394 88.2183 72.0669V71.7349C88.2183 71.3996 88.2777 71.1042 88.3965 70.8486C88.5153 70.5931 88.6854 70.3962 88.9067 70.2578C89.1297 70.1195 89.3869 70.0503 89.6782 70.0503C90.0705 70.0503 90.3862 70.1569 90.6255 70.3701C90.8647 70.5833 91.0039 70.8844 91.043 71.2734H90.4277C90.3984 71.0179 90.3236 70.834 90.2031 70.7217C90.0843 70.6077 89.9093 70.5508 89.6782 70.5508C89.4097 70.5508 89.203 70.6493 89.0581 70.8462C88.9149 71.0415 88.8416 71.3288 88.8384 71.708V72.0229C88.8384 72.4071 88.9067 72.7 89.0435 72.9019C89.1818 73.1037 89.3836 73.2046 89.6489 73.2046C89.8914 73.2046 90.0737 73.1501 90.1958 73.041C90.3179 72.932 90.3952 72.7505 90.4277 72.4966H91.043ZM94.4341 71.9692C94.4341 72.3175 94.3739 72.6235 94.2534 72.8872C94.133 73.1493 93.9604 73.3511 93.7358 73.4927C93.5129 73.6326 93.2557 73.7026 92.9644 73.7026C92.6763 73.7026 92.4191 73.6326 92.1929 73.4927C91.9683 73.3511 91.7941 73.1501 91.6704 72.8896C91.5483 72.6292 91.4865 72.3289 91.4849 71.9888V71.7886C91.4849 71.4419 91.5459 71.1359 91.668 70.8706C91.7917 70.6053 91.965 70.4027 92.188 70.2627C92.4126 70.1211 92.6698 70.0503 92.9595 70.0503C93.2492 70.0503 93.5055 70.1203 93.7285 70.2603C93.9531 70.3986 94.1265 70.5988 94.2485 70.8608C94.3706 71.1213 94.4325 71.4248 94.4341 71.7715V71.9692ZM93.8164 71.7837C93.8164 71.3898 93.7415 71.0879 93.5918 70.8779C93.4437 70.668 93.2329 70.563 92.9595 70.563C92.6925 70.563 92.4834 70.668 92.332 70.8779C92.1823 71.0863 92.1058 71.3817 92.1025 71.7642V71.9692C92.1025 72.3599 92.1782 72.6618 92.3296 72.875C92.4826 73.0882 92.6942 73.1948 92.9644 73.1948C93.2378 73.1948 93.4478 73.0907 93.5942 72.8823C93.7424 72.674 93.8164 72.3696 93.8164 71.9692V71.7837Z" fill="#AFB1B8"/>
</svg>
