<svg width="170" height="90" viewBox="0 0 170 90" fill="none" xmlns="http://www.w3.org/2000/svg">
<rect x="0.5" y="0.5" width="169" height="89" rx="3.5" stroke="#AFB1B8"/>
<path d="M86.9769 21.9345H87.1135C87.3665 21.9345 87.6397 21.9599 87.9104 21.9828C89.103 22.067 90.2873 22.2455 91.452 22.5168V19.6535C90.2527 19.3526 89.0296 19.1578 87.7965 19.0712C87.3285 19.0356 86.8302 19.0127 86.3192 19H85.8917C83.4168 19.0093 80.9526 19.3271 78.5554 19.946C75.8252 20.6269 73.2046 21.6928 70.7715 23.1119V51.5086C73.1142 50.2357 75.607 49.2643 78.1912 48.6173C80.2315 48.0967 82.3174 47.7765 84.4193 47.6612H84.5028C84.8545 47.6434 85.2061 47.6332 85.5678 47.6306V44.7216C82.8366 44.7567 80.1192 45.1178 77.4727 45.7972C76.4937 46.0515 75.5476 46.3261 74.6597 46.6313L73.6478 46.9746V24.8334L74.0804 24.6249C77.3816 23.0595 80.9521 22.1486 84.5964 21.9421C84.6267 21.9399 84.6572 21.9399 84.6875 21.9421C85.0897 21.9218 85.4945 21.9116 85.8917 21.9116H86.3268H86.347C86.557 21.9167 86.7669 21.9218 86.9769 21.9345Z" fill="#AFB1B8"/>
<path d="M94.1108 24.9326C93.4455 24.9326 92.7877 24.9097 92.1528 24.8614C91.3939 24.8054 90.6147 24.7139 89.876 24.5893C89.4257 24.513 88.983 24.4215 88.553 24.3223V52.3935C90.3737 52.8443 92.2433 53.0647 94.1184 53.0496C96.5931 53.0395 99.0571 52.7227 101.455 52.1061C104.185 51.4243 106.807 50.3585 109.241 48.9402V21.0496C106.899 22.3218 104.407 23.294 101.824 23.9434C99.3031 24.5908 96.7125 24.9231 94.1108 24.9326ZM105.335 25.4183L106.347 25.0775V47.2263L105.914 47.4348C104.255 48.2243 102.522 48.8469 100.741 49.2937C98.5781 49.8533 96.3544 50.1412 94.1209 50.1506C93.4531 50.1506 92.7903 50.1227 92.1477 50.0667L91.4546 50.0057V47.3178V27.2288L92.2616 27.2822C92.8485 27.3204 93.4556 27.3382 94.1158 27.3382C96.9514 27.3281 99.7749 26.966 102.522 26.26C103.466 26.0108 104.404 25.7311 105.335 25.4183Z" fill="#AFB1B8"/>
<path d="M72.7373 61.2123C72.5918 61.0614 72.4164 60.9429 72.2225 60.8645C72.0286 60.7861 71.8204 60.7495 71.6115 60.7571C71.3889 60.7541 71.1679 60.7956 70.9614 60.8791C70.772 60.9546 70.5999 61.0679 70.4554 61.2123C70.3126 61.3571 70.2014 61.5303 70.1291 61.7208C70.0498 61.9205 70.0103 62.1339 70.0127 62.3489V66.143C70.0037 66.4103 70.0547 66.6763 70.162 66.9211C70.2516 67.1155 70.3808 67.2888 70.5415 67.4297C70.6931 67.5573 70.8711 67.6494 71.0626 67.6992C71.2471 67.7511 71.4377 67.7776 71.6292 67.7781C71.8405 67.7802 72.0497 67.735 72.2414 67.6458C72.4311 67.5629 72.6029 67.4437 72.7474 67.2949C72.8883 67.1475 73.0006 66.975 73.0788 66.7863C73.1599 66.595 73.2012 66.3891 73.2002 66.1811V65.7564H72.2085V66.0947C72.2115 66.2101 72.1917 66.3251 72.1504 66.4329C72.1181 66.5136 72.0689 66.5865 72.0062 66.6465C71.9447 66.6961 71.8743 66.7332 71.7987 66.7558C71.7318 66.7781 71.6618 66.7901 71.5913 66.7914C71.5028 66.8017 71.4131 66.7883 71.3313 66.7526C71.2496 66.7169 71.1787 66.6601 71.1258 66.588C71.0323 66.4355 70.9865 66.2583 70.9943 66.0794V62.5422C70.9881 62.3461 71.0298 62.1514 71.1157 61.9751C71.1672 61.8951 71.24 61.8311 71.3259 61.7907C71.4118 61.7502 71.5072 61.7348 71.6014 61.7463C71.6869 61.7432 71.7718 61.7611 71.8489 61.7983C71.926 61.8355 71.993 61.8909 72.0441 61.9599C72.1551 62.1056 72.2131 62.285 72.2085 62.4685V62.7965H73.1901V62.41C73.1921 62.183 73.1509 61.9577 73.0686 61.7463C72.9954 61.5475 72.8826 61.3658 72.7373 61.2123Z" fill="#AFB1B8"/>
<path d="M78.6289 61.1692C78.3127 60.9022 77.9136 60.7547 77.5007 60.7522C77.2987 60.7531 77.0984 60.7892 76.9087 60.859C76.7161 60.928 76.5384 61.0333 76.3851 61.1692C76.2208 61.3169 76.0897 61.4981 76.0005 61.7007C75.9006 61.9325 75.8515 62.1831 75.8563 62.4356V66.0745C75.8495 66.3305 75.8987 66.5849 76.0005 66.8196C76.0903 67.0153 76.2215 67.1889 76.3851 67.3282C76.5367 67.4689 76.7147 67.5779 76.9087 67.6486C77.0984 67.7184 77.2987 67.7545 77.5007 67.7554C77.7027 67.755 77.9031 67.7188 78.0926 67.6486C78.29 67.5769 78.4719 67.4681 78.6289 67.3282C78.7871 67.1862 78.9145 67.0131 79.0033 66.8196C79.1051 66.5849 79.1544 66.3305 79.1475 66.0745V62.4356C79.1524 62.1831 79.1032 61.9325 79.0033 61.7007C78.9151 61.5002 78.7878 61.3195 78.6289 61.1692ZM78.166 66.0745C78.1743 66.1715 78.1609 66.2691 78.1268 66.3602C78.0926 66.4513 78.0386 66.5336 77.9687 66.6009C77.8377 66.7107 77.6725 66.7709 77.5019 66.7709C77.3313 66.7709 77.1662 66.7107 77.0352 66.6009C76.9652 66.5336 76.9112 66.4513 76.8771 66.3602C76.8429 66.2691 76.8295 66.1715 76.8379 66.0745V62.4356C76.8295 62.3386 76.8429 62.241 76.8771 62.1499C76.9112 62.0588 76.9652 61.9765 77.0352 61.9092C77.1662 61.7994 77.3313 61.7392 77.5019 61.7392C77.6725 61.7392 77.8377 61.7994 77.9687 61.9092C78.0386 61.9765 78.0926 62.0588 78.1268 62.1499C78.1609 62.241 78.1743 62.3386 78.166 62.4356V66.0745Z" fill="#AFB1B8"/>
<path d="M86.3673 67.6993V60.8105H85.4136L84.1614 64.4571H84.1437L82.8813 60.8105H81.9377V67.6993H82.9218V63.5086H82.9395L83.9033 66.4711H84.3941L85.3655 63.5086H85.3832V67.6993H86.3673Z" fill="#AFB1B8"/>
<path d="M91.9579 61.2938C91.8064 61.1238 91.6151 60.9944 91.4014 60.9174C91.1711 60.8425 90.93 60.8064 90.688 60.8106H89.2258V67.6994H90.2074V65.009H90.7133C91.0196 65.0229 91.3243 64.9582 91.5987 64.8208C91.8219 64.6969 92.0079 64.5151 92.1375 64.2944C92.2511 64.1112 92.3276 63.9073 92.3627 63.6943C92.4013 63.4351 92.4191 63.1732 92.4158 62.9111C92.4253 62.5803 92.393 62.2496 92.3197 61.927C92.2542 61.6886 92.1298 61.4708 91.9579 61.2938ZM91.452 63.3942C91.4477 63.519 91.4167 63.6413 91.3609 63.7528C91.3048 63.8587 91.2161 63.9435 91.1079 63.9944C90.9625 64.0594 90.8039 64.089 90.645 64.0808H90.1972V61.7388H90.7032C90.8555 61.7313 91.0074 61.761 91.1459 61.8253C91.2474 61.8835 91.328 61.9725 91.3761 62.0795C91.4297 62.2006 91.459 62.3311 91.4621 62.4635C91.4621 62.6085 91.4621 62.7611 91.4621 62.9213C91.4621 63.0815 91.4722 63.2467 91.4621 63.3942H91.452Z" fill="#AFB1B8"/>
<path d="M96.6077 60.8105H95.8032L94.2854 67.6993H95.2669L95.5553 66.2193H96.8935L97.1819 67.6993H98.1635L96.6077 60.8105ZM95.702 65.281L96.1852 62.7838H96.2029L96.6836 65.281H95.702Z" fill="#AFB1B8"/>
<path d="M102.95 64.9606H102.932L101.449 60.8105H100.506V67.6993H101.487V63.5569H101.508L103.008 67.6993H103.931V60.8105H102.95V64.9606Z" fill="#AFB1B8"/>
<path d="M108.948 60.8105L108.158 63.5493H108.138L107.349 60.8105H106.309L107.657 64.7877V67.6993H108.639V64.7877L109.987 60.8105H108.948Z" fill="#AFB1B8"/>
<path d="M70 69.6447H70.4731V70.972H70.7943V69.6447H71.2649V69.3726H70V69.6447Z" fill="#AFB1B8"/>
<path d="M73.9767 69.3726L73.3569 70.972H73.6984L73.83 70.6084H74.4675L74.6041 70.972H74.9532L74.3182 69.3726H73.9767ZM73.9261 70.3389L74.1437 69.7464L74.3612 70.3389H73.9261Z" fill="#AFB1B8"/>
<path d="M77.9079 70.3821H78.2773V70.5881C78.1694 70.6746 78.0358 70.722 77.8978 70.7229C77.8333 70.7265 77.7689 70.7145 77.7099 70.688C77.6509 70.6614 77.5991 70.6211 77.5588 70.5703C77.474 70.4485 77.4322 70.3017 77.4399 70.1533C77.4399 69.7973 77.5942 69.6193 77.9003 69.6193C77.9809 69.6112 78.0617 69.6325 78.128 69.6791C78.1944 69.7257 78.2419 69.7947 78.2621 69.8735L78.5783 69.8125C78.51 69.4997 78.2849 69.3421 77.9003 69.3421C77.6947 69.3366 77.4947 69.4103 77.3413 69.5481C77.2607 69.6276 77.1983 69.7239 77.1586 69.8302C77.1188 69.9365 77.1026 70.0502 77.1111 70.1634C77.1017 70.3823 77.1749 70.5966 77.316 70.7636C77.3943 70.8444 77.4892 70.9071 77.594 70.9475C77.6988 70.9879 77.8111 71.0049 77.9231 70.9975C78.1734 71.0045 78.4165 70.9133 78.6011 70.7432V70.1126H77.9079V70.3821Z" fill="#AFB1B8"/>
<path d="M81.9227 69.3726H81.5989V70.972H82.7195V70.7H81.9227V69.3726Z" fill="#AFB1B8"/>
<path d="M85.3175 69.3726H84.9937V70.972H85.3175V69.3726Z" fill="#AFB1B8"/>
<path d="M88.6364 70.4406L87.9812 69.3726H87.6675V70.972H87.9685V69.9269L88.6111 70.972H88.9323V69.3726H88.6364V70.4406Z" fill="#AFB1B8"/>
<path d="M91.6368 70.2677H92.4337V69.9956H91.6368V69.6447H92.4944V69.3726H91.313V70.972H92.5273V70.7H91.6368V70.2677Z" fill="#AFB1B8"/>
<path d="M98.9121 70.0032H98.2822V69.3726H97.9609V70.972H98.2822V70.2728H98.9121V70.972H99.2334V69.3726H98.9121V70.0032Z" fill="#AFB1B8"/>
<path d="M101.93 70.2677H102.73V69.9956H101.93V69.6447H102.79V69.3726H101.609V70.972H102.821V70.7H101.93V70.2677Z" fill="#AFB1B8"/>
<path d="M106.023 70.2676C106.302 70.2244 106.443 70.0769 106.443 69.8226C106.451 69.7546 106.441 69.6856 106.413 69.623C106.386 69.5603 106.342 69.5063 106.286 69.4666C106.141 69.3938 105.98 69.3614 105.818 69.3725H105.14V70.972H105.462V70.3032H105.525C105.593 70.299 105.662 70.3112 105.725 70.3388C105.772 70.3678 105.811 70.4079 105.839 70.4558L106.188 70.9644H106.572L106.377 70.6516C106.291 70.4972 106.17 70.3656 106.023 70.2676ZM105.699 70.0464H105.462V69.6446H105.715C105.825 69.6357 105.936 69.6486 106.041 69.6827C106.064 69.7034 106.083 69.7291 106.095 69.7579C106.107 69.7867 106.113 69.8179 106.111 69.8492C106.11 69.8804 106.101 69.911 106.087 69.9385C106.072 69.966 106.051 69.9899 106.026 70.0082C105.92 70.0406 105.81 70.0535 105.699 70.0464Z" fill="#AFB1B8"/>
<path d="M109.109 70.2677H109.906V69.9956H109.109V69.6447H109.97V69.3726H108.786V70.972H110V70.7H109.109V70.2677Z" fill="#AFB1B8"/>
</svg>
